<svg width="100%" viewBox="0 0 680 680" xmlns="http://www.w3.org/2000/svg">

<!-- Outer ring -->
<circle cx="340" cy="340" r="160" fill="none" stroke="#4a8adf" stroke-width="2"/>
<circle cx="340" cy="340" r="148" fill="none" stroke="#4a8adf" stroke-width="0.8"/>
<circle cx="340" cy="340" r="100" fill="none" stroke="#4a8adf" stroke-width="0.8"/>

<!-- Six spokes -->
<line x1="340" y1="340" x2="299" y2="183" stroke="#4a8adf" stroke-width="1.5"/>
<line x1="340" y1="340" x2="476" y2="243" stroke="#4a8adf" stroke-width="1.5"/>
<line x1="340" y1="340" x2="464" y2="408" stroke="#4a8adf" stroke-width="1.5"/>
<line x1="340" y1="340" x2="340" y2="480" stroke="#4a8adf" stroke-width="1.5"/>
<line x1="340" y1="340" x2="216" y2="408" stroke="#4a8adf" stroke-width="1.5"/>
<line x1="340" y1="340" x2="204" y2="243" stroke="#4a8adf" stroke-width="1.5"/>

<!-- Six outer nodes -->
<circle cx="299" cy="183" r="9" fill="#4a8adf"/>
<circle cx="476" cy="243" r="9" fill="#4a8adf"/>
<circle cx="464" cy="408" r="9" fill="#4a8adf"/>
<circle cx="340" cy="480" r="9" fill="#4a8adf"/>
<circle cx="216" cy="408" r="9" fill="#4a8adf"/>
<circle cx="204" cy="243" r="9" fill="#4a8adf"/>

<!-- Core -->
<circle cx="340" cy="340" r="22" fill="none" stroke="#4a8adf" stroke-width="1.5"/>
<circle cx="340" cy="340" r="14" fill="#4a8adf" opacity="0.6"/>
<circle cx="340" cy="340" r="5" fill="#4a8adf"/>

</svg>
